<?xml version="1.0" encoding="UTF-8" standalone="no"?>
<!DOCTYPE svg PUBLIC "-//W3C//DTD SVG 1.1//EN" "http://www.w3.org/Graphics/SVG/1.1/DTD/svg11.dtd">
<svg width="100%" height="100%" viewBox="0 0 358 705" version="1.1" xmlns="http://www.w3.org/2000/svg" xmlns:xlink="http://www.w3.org/1999/xlink" xml:space="preserve" xmlns:serif="http://www.serif.com/" style="fill-rule:evenodd;clip-rule:evenodd;stroke-linejoin:round;stroke-miterlimit:2;">
    <g transform="matrix(1,0,0,1,-344.03,-2904.05)">
        <g transform="matrix(1,0,0,1,-163.224,2028.12)">
            <g transform="matrix(0.824738,0,0,0.824738,864.683,1271.06)">
                <g>
                    <path d="M0,-104.412C-0.158,-107.349 -0.612,-110.275 -1.449,-113.098C-2.362,-116.179 -3.535,-119.184 -4.931,-122.079C-4.985,-122.193 -5.041,-122.308 -5.097,-122.421C-5.228,-122.687 -5.363,-122.951 -5.498,-123.214C-7.231,-126.603 -9.219,-129.534 -12.043,-132.104C-16.201,-135.889 -21.338,-139.039 -26.458,-141.341C-34.216,-144.829 -42.774,-145.322 -51.171,-145.322C-61.669,-145.322 -155.843,-146.222 -166.559,-146.325L-166.554,-146.334C-166.554,-146.334 -120.073,-426.226 -119.996,-426.693C-118.955,-432.957 -118.006,-439.397 -117.982,-445.808C-117.972,-449.063 -118.199,-452.328 -118.796,-455.531C-119.355,-458.539 -119.806,-461.522 -121.02,-464.374C-121.165,-464.715 -121.318,-465.052 -121.481,-465.384C-123.422,-469.333 -126.557,-472.738 -130.13,-475.276C-137.152,-480.265 -148.817,-480.186 -156.233,-476.057C-162.988,-472.295 -168.569,-465.351 -172.734,-458.982C-182.516,-444.022 -192.515,-429.18 -201.853,-413.933C-205.017,-408.766 -208.051,-403.524 -211.146,-398.313C-213.341,-394.616 -215.537,-390.918 -217.732,-387.22L-225.213,-374.622C-227.974,-369.974 -230.734,-365.327 -233.494,-360.679C-236.489,-355.635 -239.484,-350.591 -242.479,-345.547C-245.679,-340.159 -248.878,-334.772 -252.077,-329.385C-255.449,-323.706 -258.821,-318.028 -262.193,-312.35C-265.706,-306.434 -269.219,-300.518 -272.732,-294.602C-276.355,-288.5 -279.979,-282.399 -283.602,-276.298C-287.304,-270.064 -291.006,-263.829 -294.708,-257.596L-305.956,-238.654C-309.721,-232.313 -313.487,-225.972 -317.252,-219.63C-321.003,-213.315 -324.753,-206.999 -328.504,-200.683C-332.208,-194.446 -335.912,-188.208 -339.616,-181.971C-343.243,-175.864 -346.869,-169.757 -350.495,-163.65C-354.013,-157.727 -357.53,-151.804 -361.047,-145.881C-364.424,-140.194 -367.801,-134.507 -371.179,-128.82C-374.384,-123.422 -377.589,-118.024 -380.795,-112.626C-383.798,-107.57 -386.8,-102.513 -389.803,-97.456C-392.572,-92.794 -395.34,-88.132 -398.108,-83.47C-400.612,-79.255 -403.115,-75.04 -405.618,-70.825C-408.959,-65.198 -412.148,-59.527 -415.561,-53.93C-418.976,-48.328 -421.629,-42.412 -424.564,-36.579C-430.102,-25.576 -433.981,-12.468 -433.308,-0C-433.149,2.937 -432.695,5.862 -431.859,8.686C-430.945,11.767 -429.772,14.772 -428.377,17.667C-428.322,17.781 -428.267,17.895 -428.211,18.009C-428.081,18.275 -427.944,18.538 -427.81,18.802C-426.076,22.191 -424.089,25.121 -421.264,27.692C-417.107,31.476 -411.969,34.627 -406.85,36.929C-399.092,40.416 -390.533,40.909 -382.137,40.909C-371.639,40.909 -277.465,41.81 -266.749,41.912L-266.754,41.922C-266.754,41.922 -313.234,321.814 -313.312,322.28C-314.352,328.545 -315.302,334.984 -315.325,341.396C-315.336,344.651 -315.108,347.915 -314.512,351.118C-313.952,354.127 -313.502,357.109 -312.288,359.962C-312.143,360.303 -311.99,360.64 -311.826,360.972C-309.886,364.921 -306.751,368.325 -303.178,370.863C-296.156,375.853 -284.491,375.774 -277.074,371.644C-270.32,367.883 -264.738,360.94 -260.574,354.569C-250.792,339.609 -240.792,324.768 -231.455,309.522C-228.291,304.355 -225.257,299.111 -222.163,293.901C-219.967,290.203 -217.771,286.506 -215.575,282.808C-213.081,278.609 -210.588,274.409 -208.095,270.21C-205.334,265.563 -202.574,260.914 -199.813,256.267C-196.818,251.223 -193.823,246.179 -190.828,241.134C-187.629,235.747 -184.43,230.359 -181.23,224.972C-177.858,219.294 -174.486,213.616 -171.115,207.938C-167.602,202.022 -164.089,196.106 -160.575,190.19C-156.952,184.088 -153.329,177.986 -149.706,171.886C-146.004,165.651 -142.302,159.417 -138.6,153.184C-134.851,146.869 -131.102,140.556 -127.352,134.241C-123.586,127.9 -119.82,121.559 -116.055,115.218C-112.305,108.902 -108.555,102.587 -104.804,96.271C-101.1,90.033 -97.396,83.796 -93.691,77.558C-90.065,71.451 -86.438,65.345 -82.813,59.238C-79.295,53.315 -75.777,47.392 -72.261,41.469C-68.884,35.781 -65.506,30.095 -62.129,24.407C-58.924,19.01 -55.718,13.611 -52.513,8.214C-49.51,3.157 -46.507,-1.899 -43.505,-6.956L-35.199,-20.942C-32.696,-25.157 -30.193,-29.372 -27.689,-33.588C-24.349,-39.215 -21.159,-44.886 -17.747,-50.482C-14.332,-56.084 -11.679,-62.001 -8.743,-67.833C-3.206,-78.837 0.674,-91.944 0,-104.412" style="fill:white;fill-rule:nonzero;"/>
                </g>
            </g>
        </g>
    </g>
</svg>
