<svg width="1024" height="1024" viewBox="0 0 1024 1024" fill="none" xmlns="http://www.w3.org/2000/svg">
<rect width="1024" height="1024" fill="white"/>
<path d="M692.939 482.537C692.811 480.165 692.444 477.803 691.769 475.523C691.031 473.036 690.084 470.609 688.957 468.272C688.913 468.179 688.868 468.087 688.823 467.995C688.717 467.781 688.608 467.567 688.499 467.355C687.1 464.619 685.495 462.252 683.214 460.177C679.857 457.121 675.709 454.577 671.575 452.718C665.311 449.902 658.4 449.504 651.62 449.504C643.144 449.504 567.102 448.777 558.449 448.694L558.454 448.687C558.454 448.687 595.985 222.686 596.047 222.309C596.888 217.251 597.654 212.051 597.673 206.874C597.681 204.246 597.498 201.61 597.016 199.024C596.565 196.595 596.201 194.186 595.22 191.883C595.103 191.608 594.98 191.336 594.848 191.068C593.281 187.879 590.749 185.13 587.864 183.08C582.194 179.052 572.775 179.116 566.787 182.45C561.333 185.487 556.827 191.094 553.463 196.237C545.565 208.317 537.491 220.301 529.951 232.612C527.396 236.784 524.946 241.017 522.447 245.225C520.675 248.21 518.902 251.196 517.13 254.182L511.089 264.354C508.86 268.107 506.631 271.859 504.402 275.612C501.984 279.685 499.566 283.758 497.147 287.831C494.564 292.181 491.98 296.531 489.397 300.881C486.675 305.466 483.952 310.051 481.229 314.636C478.393 319.413 475.556 324.19 472.719 328.967C469.794 333.894 466.868 338.82 463.942 343.746C460.953 348.78 457.964 353.815 454.975 358.847L445.892 374.142C442.852 379.262 439.811 384.382 436.771 389.503C433.743 394.602 430.715 399.702 427.686 404.802C424.695 409.838 421.704 414.875 418.713 419.911C415.785 424.842 412.857 429.774 409.929 434.705C407.089 439.487 404.249 444.27 401.409 449.052C398.682 453.644 395.955 458.236 393.228 462.828C390.64 467.187 388.052 471.546 385.463 475.904C383.038 479.987 380.614 484.07 378.19 488.154C375.954 491.918 373.719 495.682 371.484 499.447C369.462 502.85 367.441 506.253 365.42 509.657C362.722 514.2 360.147 518.78 357.391 523.299C354.634 527.822 352.492 532.599 350.122 537.309C345.65 546.194 342.518 556.778 343.061 566.845C343.19 569.216 343.556 571.578 344.231 573.859C344.969 576.346 345.916 578.773 347.043 581.11C347.087 581.202 347.132 581.294 347.177 581.386C347.282 581.601 347.392 581.814 347.501 582.027C348.901 584.763 350.505 587.129 352.786 589.205C356.143 592.26 360.292 594.805 364.425 596.664C370.689 599.479 377.6 599.877 384.38 599.877C392.856 599.877 468.898 600.605 477.55 600.687L477.546 600.695C477.546 600.695 440.016 826.696 439.953 827.072C439.113 832.131 438.346 837.33 438.327 842.507C438.318 845.136 438.503 847.771 438.984 850.358C439.436 852.787 439.799 855.195 440.78 857.499C440.897 857.774 441.02 858.046 441.153 858.314C442.719 861.503 445.251 864.251 448.136 866.301C453.806 870.33 463.225 870.266 469.213 866.931C474.667 863.895 479.174 858.288 482.536 853.144C490.435 841.065 498.51 829.081 506.049 816.771C508.604 812.598 511.053 808.364 513.552 804.157C515.325 801.171 517.098 798.186 518.871 795.2C520.885 791.81 522.898 788.418 524.911 785.028C527.14 781.276 529.369 777.522 531.598 773.769C534.017 769.697 536.435 765.624 538.853 761.55C541.436 757.2 544.019 752.85 546.603 748.5C549.326 743.915 552.049 739.331 554.771 734.746C557.607 729.969 560.444 725.192 563.281 720.415C566.207 715.488 569.132 710.561 572.058 705.635C575.047 700.601 578.036 695.567 581.025 690.534C584.052 685.435 587.079 680.338 590.107 675.239C593.148 670.119 596.189 664.999 599.229 659.879C602.257 654.779 605.285 649.68 608.314 644.58C611.305 639.543 614.296 634.507 617.287 629.47C620.215 624.539 623.144 619.608 626.071 614.677C628.911 609.895 631.752 605.112 634.591 600.329C637.318 595.737 640.045 591.145 642.772 586.553C645.36 582.195 647.949 577.835 650.537 573.477C652.961 569.394 655.386 565.312 657.81 561.228L664.517 549.935C666.538 546.532 668.559 543.128 670.581 539.724C673.278 535.181 675.854 530.602 678.609 526.083C681.366 521.56 683.508 516.782 685.879 512.073C690.35 503.188 693.483 492.604 692.939 482.537Z" fill="black"/>
</svg>
