<svg width="1024" height="1024" viewBox="0 0 1024 1024" fill="none" xmlns="http://www.w3.org/2000/svg">
<rect x="10" y="10" width="1004" height="1004" rx="90" fill="white" stroke="#CBD5E0" stroke-width="20"/>
<path d="M688.584 468.448L688.586 468.451C689.704 470.769 690.643 473.175 691.373 475.64C692.039 477.885 692.401 480.215 692.527 482.559C693.066 492.532 689.961 503.043 685.511 511.887C684.886 513.129 684.278 514.372 683.672 515.611C681.97 519.093 680.282 522.546 678.257 525.868C676.597 528.59 674.998 531.341 673.402 534.088C672.348 535.901 671.295 537.713 670.226 539.514C669.322 541.037 668.418 542.559 667.513 544.082L664.162 549.725L657.456 561.018C655.695 563.983 653.934 566.948 652.174 569.913L650.182 573.267L646.3 579.804L642.418 586.342C641.946 587.136 641.475 587.93 641.004 588.723C640.111 590.226 639.219 591.728 638.327 593.23C636.963 595.526 635.6 597.822 634.236 600.119C631.397 604.901 628.557 609.684 625.716 614.467L626.033 614.655L625.716 614.467C623.899 617.528 622.082 620.588 620.264 623.649C619.154 625.519 618.043 627.389 616.933 629.259C613.941 634.296 610.95 639.332 607.959 644.369C604.931 649.469 601.903 654.568 598.875 659.668C595.846 664.77 592.816 669.871 589.786 674.973L589.753 675.028L588.266 677.532C585.734 681.796 583.202 686.06 580.671 690.324C577.681 695.357 574.692 700.39 571.703 705.425C568.883 710.174 566.062 714.924 563.242 719.674L562.927 720.205C560.089 724.982 557.253 729.758 554.416 734.535C551.763 739.004 549.109 743.473 546.455 747.942L546.249 748.289C544.354 751.48 542.459 754.67 540.565 757.86L538.499 761.34L538.834 761.539L538.499 761.34C536.08 765.413 533.662 769.486 531.244 773.559C530.251 775.23 529.258 776.902 528.265 778.574L527.9 779.188C526.786 781.065 525.671 782.941 524.556 784.817L524.911 785.028L524.556 784.817L522.879 787.643C521.425 790.092 519.971 792.541 518.517 794.99L515.857 799.468L513.197 803.947C512.412 805.268 511.633 806.591 510.855 807.912C509.151 810.805 507.449 813.694 505.697 816.555C499.984 825.884 493.965 835.022 487.943 844.164C486.023 847.08 484.102 849.996 482.191 852.918C478.838 858.049 474.376 863.585 469.013 866.571C466.092 868.197 462.315 869.035 458.563 868.965C454.81 868.896 451.125 867.919 448.374 865.965C445.535 863.948 443.054 861.25 441.523 858.132L441.522 858.132C441.394 857.871 441.274 857.607 441.159 857.337L440.851 857.468L441.159 857.337C440.314 855.35 439.937 853.284 439.547 851.142C439.495 850.857 439.443 850.57 439.389 850.282C438.914 847.726 438.731 845.117 438.74 842.509C438.758 837.368 439.52 832.197 440.36 827.14C440.391 826.952 449.79 770.357 459.18 713.81L472.088 636.081L476.34 610.474L477.532 603.301L477.846 601.411L477.926 600.927L477.943 600.824L478.214 600.281L477.554 600.275L476.439 600.264C463.794 600.144 392.57 599.465 384.38 599.465C377.607 599.465 370.773 599.065 364.594 596.287C360.492 594.443 356.382 591.921 353.064 588.9L352.838 589.148L353.064 588.9C350.83 586.867 349.253 584.546 347.868 581.84C347.835 581.775 347.803 581.712 347.771 581.649C347.695 581.5 347.62 581.354 347.547 581.205L347.547 581.205C347.503 581.114 347.459 581.023 347.414 580.931C346.297 578.613 345.358 576.207 344.627 573.741C343.962 571.496 343.6 569.167 343.473 566.823C342.935 556.849 346.039 546.338 350.49 537.494C351.112 536.258 351.717 535.02 352.32 533.786C354.025 530.299 355.715 526.841 357.743 523.514C359.4 520.797 360.995 518.053 362.587 515.312C363.645 513.492 364.701 511.674 365.774 509.867C367.795 506.464 369.816 503.061 371.838 499.657L371.523 499.47L371.838 499.657L371.907 499.542C374.119 495.816 376.331 492.09 378.544 488.364C379.472 486.801 380.4 485.238 381.328 483.675C382.825 481.155 384.321 478.635 385.818 476.115C388.4 471.767 390.982 467.418 393.564 463.07L393.582 463.039C396.262 458.527 398.941 454.016 401.62 449.504L401.763 449.263C404.603 444.48 407.443 439.698 410.284 434.915L409.929 434.705L410.284 434.915C413.212 429.984 416.139 425.053 419.068 420.122L423.554 412.567L428.04 405.013C429.205 403.053 430.369 401.092 431.533 399.132C433.397 395.993 435.261 392.853 437.126 389.714L436.771 389.503L437.126 389.714C438.985 386.583 440.844 383.452 442.703 380.321C443.885 378.331 445.066 376.342 446.247 374.353L455.329 359.058C457.329 355.691 459.329 352.323 461.329 348.956C462.318 347.289 463.307 345.623 464.297 343.957C465.426 342.056 466.555 340.155 467.684 338.254C469.48 335.229 471.277 332.203 473.074 329.177L477.329 322.012L481.584 314.847C484.306 310.262 487.029 305.677 489.752 301.091L489.79 301.028C492.36 296.699 494.931 292.371 497.502 288.041L501.129 281.932L504.757 275.823C506.986 272.07 509.214 268.318 511.443 264.565L511.089 264.354L511.443 264.565L517.484 254.392L517.13 254.182L517.484 254.392C518.735 252.284 519.987 250.176 521.239 248.068L522.802 245.435C523.585 244.117 524.363 242.797 525.14 241.478C526.846 238.583 528.549 235.692 530.303 232.827C536.021 223.491 542.045 214.344 548.071 205.195C549.987 202.286 551.902 199.378 553.809 196.463C557.163 191.333 561.624 185.797 566.988 182.81C569.908 181.184 573.686 180.347 577.437 180.416C581.19 180.486 584.875 181.463 587.625 183.416L587.864 183.08L587.626 183.416C590.464 185.433 592.946 188.132 594.478 191.249C594.606 191.51 594.726 191.775 594.841 192.045L594.841 192.045C595.688 194.035 596.065 196.105 596.455 198.251C596.506 198.532 596.558 198.815 596.611 199.099L596.611 199.099C597.087 201.655 597.269 204.264 597.261 206.873C597.242 212.013 596.481 217.185 595.64 222.241L595.64 222.242C595.609 222.43 586.211 279.024 576.82 335.572L563.912 413.301L559.66 438.907L558.468 446.081L558.154 447.971L558.074 448.455L558.058 448.549L557.752 449.1L558.446 449.106C567.096 449.189 643.141 449.916 651.62 449.916C658.394 449.916 665.227 450.317 671.406 453.094C675.509 454.939 679.618 457.46 682.937 460.482L683.214 460.177L682.937 460.482C685.17 462.514 686.748 464.836 688.132 467.543L688.132 467.543C688.241 467.756 688.349 467.966 688.453 468.178L688.454 468.178C688.498 468.268 688.542 468.359 688.584 468.448Z" fill="black" stroke="#CBD5E0" stroke-width="0.824738"/>
</svg>
