<svg width="1024" height="1024" viewBox="0 0 1024 1024" fill="none" xmlns="http://www.w3.org/2000/svg">
<rect x="0.5" y="0.5" width="1023" height="1023" rx="99.5" fill="white" stroke="#718096"/>
<path d="M688.507 468.489L688.505 468.486C688.463 468.397 688.419 468.307 688.375 468.217L688.374 468.216C688.271 468.006 688.163 467.796 688.054 467.583L688.054 467.583C686.673 464.882 685.101 462.57 682.878 460.547C679.567 457.533 675.466 455.016 671.37 453.174C665.21 450.405 658.392 450.004 651.62 450.004C643.142 450.004 567.131 449.277 558.451 449.194C558.358 449.193 558.249 449.166 558.151 449.091C558.055 449.018 558 448.923 557.974 448.837C557.946 448.744 557.948 448.658 557.964 448.583L559.703 438.109C567.098 393.582 595.5 222.555 595.554 222.228L595.554 222.227C596.394 217.171 597.154 212.005 597.173 206.873C597.181 204.268 597 201.664 596.524 199.115L596.524 199.115C596.472 198.831 596.42 198.548 596.369 198.267C595.978 196.119 595.603 194.059 594.76 192.079L594.76 192.079C594.646 191.811 594.526 191.547 594.399 191.288C592.874 188.186 590.404 185.497 587.575 183.488L587.864 183.08L587.575 183.488C584.843 181.547 581.176 180.574 577.436 180.504C573.697 180.435 569.935 181.269 567.031 182.887C561.686 185.863 557.234 191.384 553.882 196.511C551.975 199.426 550.06 202.335 548.144 205.244C542.118 214.393 536.095 223.538 530.377 232.873C528.624 235.737 526.922 238.626 525.216 241.521C524.439 242.84 523.661 244.16 522.877 245.48L521.343 248.064C520.082 250.188 518.82 252.312 517.559 254.437L517.13 254.182L517.559 254.437L511.519 264.609L511.089 264.354L511.519 264.609C509.289 268.362 507.061 272.115 504.832 275.868L501.205 281.977L497.577 288.086C495.006 292.415 492.436 296.744 489.865 301.072L489.827 301.136C487.195 305.57 484.562 310.004 481.929 314.437L481.659 314.891L477.404 322.057L473.149 329.222C471.339 332.272 469.528 335.321 467.717 338.37C466.602 340.247 465.487 342.124 464.372 344.002C463.369 345.691 462.366 347.38 461.363 349.069C459.377 352.414 457.391 355.759 455.405 359.103L446.322 374.398C445.15 376.371 443.978 378.345 442.806 380.319C440.938 383.465 439.069 386.612 437.201 389.759L437.201 389.759C435.354 392.87 433.506 395.981 431.659 399.092C430.478 401.08 429.297 403.069 428.116 405.058L423.63 412.612L419.143 420.167C416.215 425.098 413.287 430.029 410.359 434.96L409.929 434.705L410.359 434.96C407.518 439.743 404.679 444.525 401.839 449.308C399.112 453.9 396.385 458.492 393.658 463.084C391.07 467.442 388.482 471.801 385.893 476.16L385.463 475.904L385.893 476.16C384.402 478.671 382.911 481.182 381.42 483.693C380.486 485.265 379.553 486.837 378.62 488.409C376.384 492.173 374.149 495.938 371.914 499.702L371.529 499.474L371.914 499.702C369.892 503.105 367.871 506.509 365.85 509.912C364.778 511.718 363.721 513.535 362.664 515.354C361.071 518.096 359.475 520.843 357.818 523.559C355.792 526.882 354.104 530.335 352.401 533.822C351.797 535.056 351.192 536.295 350.568 537.534C346.122 546.369 343.023 556.865 343.561 566.818C343.687 569.156 344.048 571.479 344.711 573.716L688.507 468.489ZM688.507 468.489C689.623 470.803 690.56 473.204 691.289 475.665L691.769 475.523M688.507 468.489L691.769 475.523M691.769 475.523L691.289 475.665C691.952 477.902 692.314 480.225 692.439 482.564C692.977 492.517 689.878 503.012 685.432 511.848C684.806 513.092 684.198 514.336 683.592 515.575C681.89 519.056 680.205 522.504 678.182 525.823C676.522 528.545 674.922 531.298 673.325 534.046C672.272 535.859 671.219 537.67 670.151 539.469C668.29 542.602 666.43 545.735 664.57 548.867L664.087 549.68L657.38 560.973L657.81 561.228L657.38 560.973C655.607 563.961 653.832 566.948 652.058 569.936L650.107 573.222L646.224 579.76L642.342 586.297C641.831 587.158 641.32 588.02 640.808 588.881C639.956 590.316 639.104 591.751 638.252 593.186C636.888 595.482 635.525 597.778 634.161 600.074C631.322 604.857 628.481 609.639 625.641 614.422L626.071 614.677L625.641 614.422C623.841 617.455 622.04 620.487 620.239 623.519C619.112 625.418 617.984 627.316 616.857 629.214C613.866 634.251 610.875 639.287 607.884 644.324C604.855 649.424 601.827 654.523 598.799 659.623C595.759 664.743 592.718 669.863 589.678 674.983C586.65 680.083 583.622 685.18 580.595 690.279C577.606 695.312 574.617 700.346 571.628 705.38C568.702 710.306 565.777 715.233 562.851 720.16C560.014 724.937 557.177 729.714 554.341 734.491C551.619 739.075 548.896 743.66 546.173 748.245C543.59 752.595 541.006 756.945 538.423 761.295L538.83 761.536L538.423 761.295C536.005 765.369 533.587 769.441 531.168 773.514C530.054 775.39 528.939 777.267 527.825 779.143L527.526 779.646C526.511 781.355 525.496 783.064 524.481 784.772L524.911 785.028L524.481 784.773C522.468 788.163 520.455 791.554 518.441 794.945L518.871 795.2L518.441 794.945L515.782 799.423L513.122 803.902C512.337 805.224 511.557 806.547 510.779 807.869C509.075 810.761 507.374 813.649 505.622 816.509C499.91 825.836 493.892 834.974 487.871 844.115C485.95 847.031 484.029 849.947 482.118 852.87C478.766 857.998 474.314 863.519 468.97 866.495C466.065 868.112 462.303 868.947 458.564 868.878C454.824 868.808 451.157 867.835 448.425 865.893L448.136 866.301L448.425 865.893C445.596 863.884 443.125 861.196 441.601 858.094L441.601 858.093C441.473 857.834 441.354 857.571 441.24 857.303L440.865 857.462L441.24 857.303C440.398 855.325 440.024 853.27 439.633 851.126C439.581 850.841 439.529 850.554 439.475 850.266C439.001 847.717 438.819 845.113 438.827 842.509C438.846 837.376 439.607 832.211 440.446 827.154C440.543 826.571 477.644 603.158 478.036 600.796C478.053 600.719 478.054 600.627 478.021 600.529C477.992 600.445 477.936 600.354 477.841 600.284C477.745 600.214 477.64 600.188 477.548 600.187L476.514 600.177C464.075 600.059 392.586 599.377 384.38 599.377C377.608 599.377 370.79 598.976 364.63 596.208C360.535 594.366 356.433 591.848 353.123 588.835C350.899 586.812 349.328 584.501 347.946 581.8C347.914 581.736 347.881 581.672 347.849 581.609C347.773 581.46 347.698 581.315 347.626 581.167L347.626 581.166M691.769 475.523L347.626 581.166M347.626 581.166C347.581 581.076 347.538 580.985 347.493 580.893M347.626 581.166L347.493 580.893M347.493 580.893C346.378 578.579 345.441 576.178 344.711 573.717L347.493 580.893ZM558.108 448.326C558.104 448.33 558.099 448.334 558.094 448.339C558.099 448.334 558.104 448.33 558.108 448.326C558.111 448.323 558.113 448.32 558.116 448.318C558.119 448.315 558.122 448.313 558.122 448.312C558.125 448.31 558.121 448.314 558.118 448.316C558.115 448.319 558.112 448.322 558.108 448.326Z" fill="black" stroke="#718096"/>
</svg>
