<svg width="1024" height="1024" viewBox="0 0 1024 1024" fill="none" xmlns="http://www.w3.org/2000/svg">
<rect x="10" y="10" width="1004" height="1004" rx="90" fill="black" stroke="#2D3748" stroke-width="20"/>
<path d="M682.584 455.448L682.586 455.451C683.704 457.769 684.643 460.175 685.373 462.64C686.039 464.885 686.401 467.215 686.527 469.559C687.066 479.532 683.961 490.043 679.511 498.887C678.886 500.129 678.278 501.372 677.672 502.611C675.97 506.093 674.282 509.546 672.257 512.868C670.597 515.59 668.998 518.341 667.402 521.088C666.348 522.901 665.295 524.713 664.226 526.514C663.322 528.037 662.418 529.559 661.513 531.082L658.162 536.725L651.456 548.018C649.695 550.983 647.934 553.948 646.174 556.913L644.182 560.267L640.3 566.804L636.418 573.342C635.946 574.136 635.475 574.93 635.004 575.723C634.111 577.226 633.219 578.728 632.327 580.23C630.963 582.526 629.6 584.822 628.236 587.119C625.397 591.901 622.557 596.684 619.716 601.467L620.033 601.655L619.716 601.467C617.899 604.528 616.082 607.588 614.264 610.649C613.154 612.519 612.043 614.389 610.933 616.259C607.941 621.296 604.95 626.332 601.959 631.369C598.931 636.469 595.903 641.568 592.875 646.668C589.846 651.77 586.816 656.871 583.786 661.973L583.753 662.028L582.266 664.532C579.734 668.796 577.202 673.06 574.671 677.324C571.681 682.357 568.692 687.39 565.703 692.425C562.883 697.174 560.062 701.924 557.242 706.674L556.927 707.205C554.089 711.982 551.253 716.758 548.416 721.535C545.763 726.004 543.109 730.473 540.455 734.942L540.249 735.289C538.354 738.48 536.459 741.67 534.565 744.86L532.499 748.34L532.834 748.539L532.499 748.34C530.08 752.413 527.662 756.486 525.244 760.559C524.251 762.23 523.258 763.902 522.265 765.574L521.9 766.188C520.786 768.065 519.671 769.941 518.556 771.817L518.911 772.028L518.556 771.817L516.879 774.643C515.425 777.092 513.971 779.541 512.517 781.99L509.857 786.468L507.197 790.947C506.412 792.268 505.633 793.591 504.855 794.912C503.151 797.805 501.449 800.694 499.697 803.555C493.984 812.884 487.965 822.022 481.943 831.164C480.023 834.08 478.102 836.996 476.191 839.918C472.838 845.049 468.376 850.585 463.013 853.571C460.092 855.197 456.315 856.035 452.563 855.965C448.81 855.896 445.125 854.919 442.374 852.965C439.535 850.948 437.054 848.25 435.523 845.132L435.522 845.132C435.394 844.871 435.274 844.607 435.159 844.337L434.851 844.468L435.159 844.337C434.314 842.35 433.937 840.284 433.547 838.142C433.495 837.857 433.443 837.57 433.389 837.282C432.914 834.726 432.731 832.117 432.74 829.509C432.758 824.368 433.52 819.197 434.36 814.14C434.391 813.952 443.79 757.357 453.18 700.81L466.088 623.081L470.34 597.474L471.532 590.301L471.846 588.411L471.926 587.927L471.943 587.824L472.214 587.281L471.554 587.275L470.439 587.264C457.794 587.144 386.57 586.465 378.38 586.465C371.607 586.465 364.773 586.065 358.594 583.287C354.492 581.443 350.382 578.921 347.064 575.9L346.838 576.148L347.064 575.9C344.83 573.867 343.253 571.546 341.868 568.84C341.835 568.775 341.803 568.712 341.771 568.649C341.695 568.5 341.62 568.354 341.547 568.205L341.547 568.205C341.503 568.114 341.459 568.023 341.414 567.931C340.297 565.613 339.358 563.207 338.627 560.741C337.962 558.496 337.6 556.167 337.473 553.823C336.935 543.849 340.039 533.338 344.49 524.494C345.112 523.258 345.717 522.02 346.32 520.786C348.025 517.299 349.715 513.841 351.743 510.514C353.4 507.797 354.995 505.053 356.587 502.312C357.645 500.492 358.701 498.674 359.774 496.867C361.795 493.464 363.816 490.061 365.838 486.657L365.523 486.47L365.838 486.657L365.907 486.542C368.119 482.816 370.331 479.09 372.544 475.364C373.472 473.801 374.4 472.238 375.328 470.675C376.825 468.155 378.321 465.635 379.818 463.115C382.4 458.767 384.982 454.418 387.564 450.07L387.582 450.039C390.262 445.527 392.941 441.016 395.62 436.504L395.763 436.263C398.603 431.48 401.443 426.698 404.284 421.915L403.929 421.705L404.284 421.915C407.212 416.984 410.139 412.053 413.068 407.122L417.554 399.567L422.04 392.013C423.205 390.053 424.369 388.092 425.533 386.132C427.397 382.993 429.261 379.853 431.126 376.714L430.771 376.503L431.126 376.714C432.985 373.583 434.844 370.452 436.703 367.321C437.885 365.331 439.066 363.342 440.247 361.353L449.329 346.058C451.329 342.691 453.329 339.323 455.329 335.956C456.318 334.289 457.307 332.623 458.297 330.957C459.426 329.056 460.555 327.155 461.684 325.254C463.48 322.229 465.277 319.203 467.074 316.177L471.329 309.012L475.584 301.847C478.306 297.262 481.029 292.677 483.752 288.091L483.79 288.028C486.36 283.699 488.931 279.371 491.502 275.041L495.129 268.932L498.757 262.823C500.986 259.07 503.214 255.318 505.443 251.565L505.089 251.354L505.443 251.565L511.484 241.392L511.13 241.182L511.484 241.392C512.735 239.284 513.987 237.176 515.239 235.068L516.802 232.435C517.585 231.117 518.363 229.797 519.14 228.478C520.846 225.583 522.549 222.692 524.303 219.827C530.021 210.491 536.045 201.344 542.071 192.195C543.987 189.286 545.902 186.378 547.809 183.463C551.163 178.333 555.624 172.797 560.988 169.81C563.908 168.184 567.686 167.347 571.437 167.416C575.19 167.486 578.875 168.463 581.625 170.416L581.864 170.08L581.626 170.416C584.464 172.433 586.946 175.132 588.478 178.249C588.606 178.51 588.726 178.775 588.841 179.045L588.841 179.045C589.688 181.035 590.065 183.105 590.455 185.251C590.506 185.532 590.558 185.815 590.611 186.099L590.611 186.099C591.087 188.655 591.269 191.264 591.261 193.873C591.242 199.013 590.481 204.185 589.64 209.241L589.64 209.242C589.609 209.43 580.211 266.024 570.82 322.572L557.912 400.301L553.66 425.907L552.468 433.081L552.154 434.971L552.074 435.455L552.058 435.549L551.752 436.1L552.446 436.106C561.096 436.189 637.141 436.916 645.62 436.916C652.394 436.916 659.227 437.317 665.406 440.094C669.509 441.939 673.618 444.46 676.937 447.482L677.214 447.177L676.937 447.482C679.17 449.514 680.748 451.836 682.132 454.543L682.132 454.543C682.241 454.756 682.349 454.966 682.453 455.178L682.454 455.178C682.498 455.268 682.542 455.359 682.584 455.448Z" fill="white" stroke="#2D3748" stroke-width="0.824738"/>
</svg>
