<svg width="67" height="89" viewBox="0 0 67 89" fill="none" xmlns="http://www.w3.org/2000/svg">
<path d="M66.75 21.1968V22.25H44.5V0H45.5532C46.6596 0 47.7209 0.439611 48.5033 1.22184L65.5282 18.2467C66.3105 19.0292 66.7499 20.0903 66.75 21.1968ZM43.1094 27.8125C40.8148 27.8125 38.9375 25.9352 38.9375 23.6406V0H4.17188C1.86778 0 0 1.86778 0 4.17188V84.8281C0 87.1322 1.86778 89 4.17188 89H62.5781C64.8822 89 66.75 87.1322 66.75 84.8281V27.8125H43.1094ZM21.4167 69.619C21.3324 69.709 21.2312 69.7814 21.1188 69.8322C21.0065 69.883 20.8853 69.9112 20.7621 69.9152C20.6389 69.9192 20.5161 69.8989 20.4008 69.8554C20.2854 69.8119 20.1798 69.7461 20.0898 69.6618L8.8143 59.091C8.72066 59.0032 8.64601 58.8971 8.59498 58.7793C8.54396 58.6615 8.51763 58.5345 8.51763 58.4062C8.51763 58.2778 8.54396 58.1508 8.59498 58.033C8.64601 57.9152 8.72066 57.8092 8.8143 57.7214L20.0898 47.1505C20.1798 47.0662 20.2854 47.0004 20.4008 46.957C20.5161 46.9135 20.6389 46.8931 20.7621 46.8971C20.8853 46.9011 21.0065 46.9293 21.1188 46.9801C21.2312 47.0309 21.3324 47.1034 21.4167 47.1933L24.82 50.8237C24.9061 50.9154 24.9728 51.0235 25.0162 51.1415C25.0596 51.2596 25.0789 51.3851 25.0728 51.5107C25.0668 51.6363 25.0356 51.7594 24.9811 51.8727C24.9265 51.9861 24.8498 52.0873 24.7554 52.1703L17.6696 58.4062L24.7554 64.6422C24.8498 64.7252 24.9265 64.8264 24.9811 64.9398C25.0356 65.0531 25.0668 65.1762 25.0728 65.3018C25.0789 65.4274 25.0596 65.5529 25.0162 65.671C24.9728 65.789 24.9061 65.8971 24.82 65.9888L21.4167 69.619ZM30.3332 78.3937L25.5611 77.0083C25.322 76.9388 25.1203 76.7773 25.0003 76.5591C24.8803 76.341 24.8519 76.0841 24.9212 75.845L35.6012 39.0585C35.6707 38.8194 35.8322 38.6177 36.0504 38.4977C36.2685 38.3777 36.5254 38.3493 36.7645 38.4186L41.5364 39.804C41.6548 39.8384 41.7652 39.8958 41.8615 39.9728C41.9577 40.0499 42.0378 40.1452 42.0972 40.2532C42.1566 40.3612 42.1941 40.4799 42.2077 40.6024C42.2212 40.7249 42.2105 40.8489 42.1761 40.9673L31.4961 77.7538C31.4618 77.8722 31.4045 77.9827 31.3275 78.079C31.2505 78.1752 31.1552 78.2553 31.0472 78.3148C30.9392 78.3742 30.8206 78.4118 30.6981 78.4253C30.5755 78.4388 30.4516 78.4281 30.3332 78.3937ZM58.2834 59.091L47.0078 69.6618C46.9179 69.7461 46.8122 69.8119 46.6969 69.8554C46.5815 69.8989 46.4588 69.9192 46.3355 69.9152C46.2123 69.9112 46.0911 69.883 45.9788 69.8322C45.8665 69.7814 45.7653 69.709 45.681 69.619L42.2774 65.9886C42.1914 65.8969 42.1247 65.7888 42.0813 65.6708C42.0379 65.5528 42.0186 65.4272 42.0246 65.3016C42.0307 65.176 42.0619 65.0529 42.1164 64.9396C42.1709 64.8263 42.2477 64.7251 42.3421 64.642L49.428 58.4062L42.3423 52.1703C42.2479 52.0873 42.1711 51.9861 42.1166 51.8727C42.0621 51.7594 42.0308 51.6363 42.0248 51.5107C42.0188 51.3851 42.0381 51.2596 42.0815 51.1415C42.1249 51.0235 42.1916 50.9154 42.2776 50.8237L45.6812 47.1933C45.7655 47.1034 45.8667 47.0309 45.979 46.9801C46.0913 46.9293 46.2125 46.9011 46.3357 46.8971C46.4589 46.8931 46.5817 46.9135 46.6971 46.957C46.8124 47.0004 46.9181 47.0662 47.008 47.1505L58.2835 57.7214C58.3772 57.8092 58.4518 57.9152 58.5028 58.033C58.5538 58.1508 58.5801 58.2778 58.5801 58.4062C58.5801 58.5346 58.5538 58.6616 58.5027 58.7793C58.4517 58.8971 58.377 59.0032 58.2834 59.091Z" fill="#D1D5DB"/>
</svg>
