<svg width="67" height="90" viewBox="0 0 67 90" fill="none" xmlns="http://www.w3.org/2000/svg">
<path d="M65.7786 18.457L48.6971 1.23047C47.912 0.439453 46.8477 0 45.731 0H44.6667V22.5H67V21.4277C67 20.3203 66.5638 19.248 65.7786 18.457ZM22.4031 59.0625C19.2799 59.0625 16.75 61.1895 16.75 63.8086C16.75 66.4453 19.2974 68.5547 22.4206 68.5547C25.5438 68.5547 28.0737 66.4277 28.0737 63.8086C28.0737 61.1895 25.5263 59.0625 22.4031 59.0625ZM39.0833 23.9062V0H27.9865V5.625H22.4031V0H4.1875C1.86693 0 0 1.88086 0 4.21875V85.7812C0 88.1191 1.86693 90 4.1875 90H62.8125C65.1331 90 67 88.1191 67 85.7812V28.125H43.2708C40.9677 28.125 39.0833 26.2266 39.0833 23.9062ZM16.7326 5.625H22.3159V11.25H16.7326V5.625ZM22.3682 73.125C16.5755 73.125 12.2484 67.7813 13.4 62.0684L16.8198 45V39.375H22.4031V33.75H16.8198V28.125H22.4031V22.5H16.8198V16.875H22.4031V11.25H27.9865V16.875H22.4031V22.5H27.9865V28.125H22.4031V33.75H27.9865V39.375H22.4031V45H26.2591C27.2536 45 28.126 45.7207 28.318 46.7051L31.3365 62.1211C32.4531 67.8164 28.126 73.125 22.3682 73.125Z" fill="#D1D5DB"/>
</svg>
