<svg width="67" height="89" viewBox="0 0 67 89" fill="none" xmlns="http://www.w3.org/2000/svg">
<path d="M67 21.1968V22.25H44.6667V0H45.7238C46.8344 0 47.8996 0.439611 48.6849 1.22184L65.7736 18.2467C66.5588 19.0292 66.9999 20.0903 67 21.1968ZM39.0833 23.6406V0H4.1875C1.87478 0 0 1.86778 0 4.17188V84.8281C0 87.1322 1.87478 89 4.1875 89H62.8125C65.1252 89 67 87.1322 67 84.8281V27.8125H43.2708C40.9677 27.8125 39.0833 25.9352 39.0833 23.6406ZM55.8333 48.6747V68.137C55.8333 71.8647 51.3068 73.6991 48.6847 71.087L39.0833 61.5249V68.1406C39.0833 70.4447 37.2086 72.3125 34.8958 72.3125H15.3542C13.0414 72.3125 11.1667 70.4447 11.1667 68.1406V48.6719C11.1667 46.3678 13.0414 44.5 15.3542 44.5H34.8958C37.2086 44.5 39.0833 46.3678 39.0833 48.6719V55.2876L48.6847 45.7248C51.3039 43.1156 55.8333 44.9441 55.8333 48.6747Z" fill="#D1D5DB"/>
</svg>
