<svg width="67" height="89" viewBox="0 0 67 89" fill="none" xmlns="http://www.w3.org/2000/svg">
<path d="M39.0833 23.6406V0H4.1875C1.86693 0 0 1.85996 0 4.17188V84.8281C0 87.14 1.86693 89 4.1875 89H62.8125C65.1331 89 67 87.14 67 84.8281V27.8125H43.2708C40.9677 27.8125 39.0833 25.9352 39.0833 23.6406ZM49.5695 42.1533L39.0833 58.4062L49.5695 74.6592C50.4594 76.0498 49.4648 77.875 47.8073 77.875H41.718C40.9503 77.875 40.2349 77.4578 39.8685 76.7799C36.4487 70.4873 33.5 64.8379 33.5 64.8379C32.3833 67.4105 31.7552 68.3145 27.1141 76.7973C26.7477 77.4752 26.0497 77.8924 25.282 77.8924H19.1927C17.5352 77.8924 16.5406 76.0672 17.4305 74.6766L27.9516 58.4236L17.4305 42.1707C16.5232 40.7801 17.5352 38.9549 19.1927 38.9549H25.2646C26.0323 38.9549 26.7477 39.3721 27.1141 40.05C31.668 48.5328 30.6036 45.8906 33.5 51.9572C33.5 51.9572 34.5643 49.9234 39.8859 40.05C40.2523 39.3721 40.9677 38.9549 41.7354 38.9549H47.8073C49.4648 38.9375 50.4594 40.7627 49.5695 42.1533ZM67 21.1896V22.25H44.6667V0H45.731C46.8477 0 47.912 0.43457 48.6971 1.2168L65.7786 18.252C66.5638 19.0342 67 20.0945 67 21.1896Z" fill="#D1D5DB"/>
</svg>
