<svg width="67" height="90" viewBox="0 0 67 90" fill="none" xmlns="http://www.w3.org/2000/svg">
<path d="M33.7966 47.6719C35.332 47.6719 36.501 48.1465 37.3385 49.0957C39.0135 51.0117 39.0484 54.8437 37.3036 56.8477C36.4487 57.832 35.2273 58.3418 33.6221 58.3418H28.9286V47.6719H33.7966ZM65.7786 18.457L48.6797 1.23047C47.8945 0.439453 46.8302 0 45.7135 0H44.6667V22.5H67V21.4277C67 20.3203 66.5638 19.248 65.7786 18.457ZM39.0833 23.9062V0H4.1875C1.86693 0 0 1.88086 0 4.21875V85.7812C0 88.1191 1.86693 90 4.1875 90H62.8125C65.1331 90 67 88.1191 67 85.7812V28.125H43.2708C40.9677 28.125 39.0833 26.2266 39.0833 23.9062ZM48.3307 52.9453C48.3307 68.8184 32.837 66.5859 28.9461 66.5859V76.6406C28.9461 77.8008 28.0039 78.75 26.8523 78.75H21.4784C20.3268 78.75 19.3846 77.8008 19.3846 76.6406V41.5195C19.3846 40.3594 20.3268 39.4102 21.4784 39.4102H35.6112C43.3755 39.4102 48.3307 45.1758 48.3307 52.9453Z" fill="#D1D5DB"/>
</svg>
