<svg width="67" height="89" viewBox="0 0 67 89" fill="none" xmlns="http://www.w3.org/2000/svg">
<path d="M39.0833 23.6406V0H4.1875C1.86693 0 0 1.85996 0 4.17188V84.8281C0 87.14 1.86693 89 4.1875 89H62.8125C65.1331 89 67 87.14 67 84.8281V27.8125H43.2708C40.9677 27.8125 39.0833 25.9352 39.0833 23.6406ZM11.1667 12.5156C11.1667 11.7473 11.7913 11.125 12.5625 11.125H26.5208C27.292 11.125 27.9167 11.7473 27.9167 12.5156V15.2969C27.9167 16.0652 27.292 16.6875 26.5208 16.6875H12.5625C11.7913 16.6875 11.1667 16.0652 11.1667 15.2969V12.5156ZM11.1667 23.6406C11.1667 22.8723 11.7913 22.25 12.5625 22.25H26.5208C27.292 22.25 27.9167 22.8723 27.9167 23.6406V26.4219C27.9167 27.1902 27.292 27.8125 26.5208 27.8125H12.5625C11.7913 27.8125 11.1667 27.1902 11.1667 26.4219V23.6406ZM44.808 66.75H53.0417C54.5841 66.75 55.8333 67.9946 55.8333 69.5312C55.8333 71.0679 54.5841 72.3125 53.0417 72.3125H44.808C41.9378 72.3125 39.352 70.7237 38.0661 68.165C37.5514 67.1359 36.6546 67.0316 36.2917 67.0316C35.9288 67.0316 35.0319 67.1342 34.5434 68.1076L33.2051 70.7741C32.9734 71.2361 32.617 71.6246 32.176 71.8961C31.735 72.1675 31.2267 72.3111 30.7083 72.3108C30.642 72.3108 30.5775 72.3073 30.5094 72.3021C29.384 72.2238 28.4157 71.4764 28.0615 70.4091L25.125 61.6377L23.2738 67.1794C22.2461 70.2492 19.3689 72.3125 16.1201 72.3125H13.9583C12.4159 72.3125 11.1667 71.0679 11.1667 69.5312C11.1667 67.9946 12.4159 66.75 13.9583 66.75H16.1201C16.9629 66.75 17.7096 66.2146 17.9766 65.4185L21.1504 55.9205C21.7261 54.2153 23.3209 53.068 25.125 53.068C26.9291 53.068 28.5239 54.2135 29.0979 55.9205L31.5197 63.1587C34.9691 60.3444 40.9503 61.4726 43.0353 65.6201C43.3877 66.3259 44.0752 66.75 44.808 66.75ZM65.7786 18.252L48.6971 1.2168C47.912 0.43457 46.8477 0 45.731 0H44.6667V22.25H67V21.1896C67 20.0945 66.5638 19.0342 65.7786 18.252Z" fill="#D1D5DB"/>
</svg>
