<svg width="67" height="90" viewBox="0 0 67 90" fill="none" xmlns="http://www.w3.org/2000/svg">
<path d="M67 21.2762V22.3333H44.6667V0H45.7238C46.8344 5.8066e-06 47.8995 0.441157 48.6847 1.22641L65.7734 18.3151C66.5587 19.1004 67 20.1655 67 21.2762ZM43.2708 27.9167C40.9677 27.9167 39.0833 26.0323 39.0833 23.7292V0H4.1875C1.87478 0 0 1.87478 0 4.1875V85.1458C0 87.4586 1.87478 89.3333 4.1875 89.3333H62.8125C65.1252 89.3333 67 87.4586 67 85.1458V27.9167H43.2708ZM19.6368 30.7083C24.2622 30.7083 28.0118 34.4579 28.0118 39.0833C28.0118 43.7088 24.2622 47.4583 19.6368 47.4583C15.0113 47.4583 11.2618 43.7088 11.2618 39.0833C11.2618 34.4579 15.0115 30.7083 19.6368 30.7083ZM55.9284 72.5833H11.2618L11.3464 64.1237L18.2409 57.2292C19.0585 56.4116 20.2996 56.4962 21.1172 57.3138L28.0118 64.2083L46.073 46.1471C46.8906 45.3295 48.2163 45.3295 49.0341 46.1471L55.9284 53.0417V72.5833Z" fill="#D1D5DB"/>
</svg>
