<svg width="67" height="89" viewBox="0 0 67 89" fill="none" xmlns="http://www.w3.org/2000/svg">
<path fill-rule="evenodd" clip-rule="evenodd" d="M39.0833 0V23.6406C39.0833 25.9352 40.9677 27.8125 43.2708 27.8125H67V84.8281C67 87.14 65.1331 89 62.8125 89H4.1875C1.86693 89 0 87.14 0 84.8281V4.17188C0 1.85996 1.86693 0 4.1875 0H39.0833ZM67 22.25V21.1896C67 20.0945 66.5638 19.0342 65.7786 18.252L48.6971 1.2168C47.912 0.43457 46.8477 0 45.731 0H44.6667V22.25H67ZM31.5556 51.6213V64.9788L19.8889 58.2025V44.845L31.5556 51.6213ZM47.1111 58.2025L35.4444 64.9788V51.6213L47.1111 44.845V58.2025ZM45.0208 41.5788L33.5 48.2575L21.9792 41.5788L33.5 34.9L45.0208 41.5788ZM16.5104 60.2012C16.8507 60.7862 17.3287 61.2575 17.9444 61.615L31.5556 69.4637C32.1713 69.8213 32.8194 70 33.5 70C34.1806 70 34.8287 69.8213 35.4444 69.4637L49.0556 61.615C49.6713 61.2575 50.1493 60.7862 50.4896 60.2012C50.8299 59.6162 51 58.9662 51 58.2512V42.7487C51 42.0337 50.8299 41.3838 50.4896 40.7987C50.1493 40.2137 49.6713 39.7425 49.0556 39.385L35.4444 31.5362C34.8287 31.1787 34.1806 31 33.5 31C32.8194 31 32.1713 31.1787 31.5556 31.5362L17.9444 39.385C17.3287 39.7425 16.8507 40.2137 16.5104 40.7987C16.1701 41.3838 16 42.0337 16 42.7487V58.2512C16 58.9662 16.1701 59.6162 16.5104 60.2012Z" fill="#D1D5DB"/>
</svg>
