<svg width="67" height="89" viewBox="0 0 67 89" fill="none" xmlns="http://www.w3.org/2000/svg">
<path d="M39.0833 23.6406V0H4.1875C1.86693 0 0 1.85996 0 4.17188V84.8281C0 87.14 1.86693 89 4.1875 89H62.8125C65.1331 89 67 87.14 67 84.8281V27.8125H43.2708C40.9677 27.8125 39.0833 25.9352 39.0833 23.6406ZM27.9167 70.2266C27.9167 72.0865 25.6659 73.0078 24.3398 71.7041L18.1458 65.3594H13.2604C12.1089 65.3594 11.1667 64.4207 11.1667 63.2734V53.5391C11.1667 52.3918 12.1089 51.4531 13.2604 51.4531H18.1458L24.3398 45.1084C25.6659 43.7873 27.9167 44.726 27.9167 46.5859V70.2266ZM33.7094 61.9523C35.2971 60.3357 35.2971 57.7631 33.7094 56.1465C29.8534 52.1832 35.838 46.3773 39.7115 50.3232C44.4573 55.173 44.4573 62.9084 39.7115 67.7756C35.9078 71.652 29.7836 65.9678 33.7094 61.9523ZM48.7146 41.5971C58.2063 51.3141 58.2063 66.7674 48.7146 76.5018C44.9109 80.3955 38.7693 74.7113 42.7125 70.6785C49.0286 64.2121 49.0461 53.9041 42.7125 47.4203C38.8565 43.457 44.8586 37.6338 48.7146 41.5971ZM67 21.1896V22.25H44.6667V0H45.731C46.8477 0 47.912 0.43457 48.6971 1.2168L65.7786 18.252C66.5638 19.0342 67 20.0945 67 21.1896Z" fill="#6B7280"/>
</svg>
