<svg width="67" height="89" viewBox="0 0 67 89" fill="none" xmlns="http://www.w3.org/2000/svg">
<path d="M39.0833 23.6406V0H4.1875C1.86693 0 0 1.85996 0 4.17188V84.8281C0 87.14 1.86693 89 4.1875 89H62.8125C65.1331 89 67 87.14 67 84.8281V27.8125H43.2708C40.9677 27.8125 39.0833 25.9352 39.0833 23.6406ZM50.25 64.6641C50.25 65.8113 49.3078 66.75 48.1563 66.75H18.8438C17.6922 66.75 16.75 65.8113 16.75 64.6641V63.2734C16.75 62.1262 17.6922 61.1875 18.8438 61.1875H48.1563C49.3078 61.1875 50.25 62.1262 50.25 63.2734V64.6641ZM50.25 53.5391C50.25 54.6863 49.3078 55.625 48.1563 55.625H18.8438C17.6922 55.625 16.75 54.6863 16.75 53.5391V52.1484C16.75 51.0012 17.6922 50.0625 18.8438 50.0625H48.1563C49.3078 50.0625 50.25 51.0012 50.25 52.1484V53.5391ZM50.25 41.0234V42.4141C50.25 43.5613 49.3078 44.5 48.1563 44.5H18.8438C17.6922 44.5 16.75 43.5613 16.75 42.4141V41.0234C16.75 39.8762 17.6922 38.9375 18.8438 38.9375H48.1563C49.3078 38.9375 50.25 39.8762 50.25 41.0234ZM67 21.1896V22.25H44.6667V0H45.731C46.8477 0 47.912 0.43457 48.6971 1.2168L65.7786 18.252C66.5638 19.0342 67 20.0945 67 21.1896Z" fill="#6B7280"/>
</svg>
