<svg width="67" height="89" viewBox="0 0 67 89" fill="none" xmlns="http://www.w3.org/2000/svg">
<path d="M31.7378 44.5174C30.8654 41.7361 30.8828 36.3648 31.3888 36.3648C32.8544 36.3648 32.7148 42.7791 31.7378 44.5174ZM31.4411 52.7221C30.0977 56.2334 28.4227 60.2488 26.4859 63.6211C29.6789 62.4043 33.2906 60.6313 37.4607 59.8143C35.2448 58.1455 33.1161 55.7467 31.4411 52.7221ZM15.0227 74.4158C15.0227 74.5549 17.3258 73.4771 21.112 67.4279C19.943 68.523 16.0346 71.6867 15.0227 74.4158ZM43.2708 27.8125H67V84.8281C67 87.14 65.1331 89 62.8125 89H4.1875C1.86693 89 0 87.14 0 84.8281V4.17188C0 1.85996 1.86693 0 4.1875 0H39.0833V23.6406C39.0833 25.9352 40.9677 27.8125 43.2708 27.8125ZM41.875 57.6762C38.3854 55.5555 36.0648 52.6352 34.4247 48.3242C35.2099 45.1084 36.4487 40.2238 35.5065 37.1645C34.6865 32.0539 28.1086 32.558 27.1664 35.9824C26.294 39.1635 27.0966 43.6482 28.5797 49.3672C26.5557 54.1648 23.5721 60.5965 21.4609 64.2816C21.4435 64.2816 21.4435 64.299 21.426 64.299C16.6977 66.7152 8.58438 72.0344 11.9169 76.1193C12.894 77.3187 14.7086 77.8576 15.6682 77.8576C18.7914 77.8576 21.8971 74.7287 26.3289 67.115C30.8305 65.6375 35.7682 63.7949 40.1128 63.0822C43.899 65.1334 48.3307 66.4719 51.2794 66.4719C56.3742 66.4719 56.7232 60.9094 54.7167 58.9277C52.2914 56.5637 45.2424 57.2416 41.875 57.6762ZM65.7786 18.252L48.6797 1.2168C47.8945 0.43457 46.8302 0 45.7135 0H44.6667V22.25H67V21.1896C67 20.0945 66.5638 19.0342 65.7786 18.252ZM52.8497 62.6303C53.5651 62.1609 52.4135 60.5617 45.382 61.0658C51.8552 63.8123 52.8497 62.6303 52.8497 62.6303Z" fill="#6B7280"/>
</svg>
