<svg width="67" height="89" viewBox="0 0 67 89" fill="none" xmlns="http://www.w3.org/2000/svg">
<path d="M39.0833 23.6406V0H4.1875C1.86693 0 0 1.85996 0 4.17188V84.8281C0 87.14 1.86693 89 4.1875 89H62.8125C65.1331 89 67 87.14 67 84.8281V27.8125H43.2708C40.9677 27.8125 39.0833 25.9352 39.0833 23.6406ZM22.3333 48.6719C22.3333 49.4402 21.7087 50.0625 20.9375 50.0625H19.5417C17.9993 50.0625 16.75 51.3071 16.75 52.8438V58.4062C16.75 59.9429 17.9993 61.1875 19.5417 61.1875H20.9375C21.7087 61.1875 22.3333 61.8098 22.3333 62.5781V65.3594C22.3333 66.1277 21.7087 66.75 20.9375 66.75H19.5417C14.9162 66.75 11.1667 63.0144 11.1667 58.4062V52.8438C11.1667 48.2356 14.9162 44.5 19.5417 44.5H20.9375C21.7087 44.5 22.3333 45.1223 22.3333 45.8906V48.6719ZM30.0575 66.75H27.9167C27.1455 66.75 26.5208 66.1277 26.5208 65.3594V62.5781C26.5208 61.8098 27.1455 61.1875 27.9167 61.1875H30.0575C31.0957 61.1875 31.8739 60.5791 31.8739 60.0368C31.8739 59.8108 31.743 59.5744 31.504 59.3693L27.6846 56.1065C26.2068 54.8515 25.3588 53.068 25.3588 51.215C25.3588 47.5124 28.6774 44.5017 32.7585 44.5017H34.8958C35.667 44.5017 36.2917 45.124 36.2917 45.8924V48.6736C36.2917 49.4419 35.667 50.0642 34.8958 50.0642H32.755C31.7168 50.0642 30.9386 50.6726 30.9386 51.215C30.9386 51.441 31.0695 51.6774 31.3085 51.8825L35.1279 55.1452C36.6057 56.4003 37.4537 58.1838 37.4537 60.0368C37.4554 63.7376 34.1386 66.75 30.0575 66.75ZM44.6667 45.8906V49.5062C44.6667 53.0297 45.6612 56.4889 47.4583 59.3936C49.2555 56.4907 50.25 53.0297 50.25 49.5062V45.8906C50.25 45.1223 50.8746 44.5 51.6458 44.5H54.4375C55.2087 44.5 55.8333 45.1223 55.8333 45.8906V49.5062C55.8333 55.6737 53.586 61.4813 49.5032 65.8617C48.9763 66.4267 48.2348 66.75 47.4583 66.75C46.6819 66.75 45.9404 66.4267 45.4134 65.8617C41.3306 61.4813 39.0833 55.6737 39.0833 49.5062V45.8906C39.0833 45.1223 39.708 44.5 40.4792 44.5H43.2708C44.042 44.5 44.6667 45.1223 44.6667 45.8906ZM65.7786 18.252L48.6971 1.2168C47.912 0.43457 46.8477 0 45.731 0H44.6667V22.25H67V21.1896C67 20.0945 66.5638 19.0342 65.7786 18.252Z" fill="#6B7280"/>
</svg>
