<svg width="67" height="89" viewBox="0 0 67 89" fill="none" xmlns="http://www.w3.org/2000/svg">
<path d="M39.0833 23.6406V0H4.1875C1.86693 0 0 1.85996 0 4.17188V84.8281C0 87.14 1.86693 89 4.1875 89H62.8125C65.1331 89 67 87.14 67 84.8281V27.8125H43.2708C40.9677 27.8125 39.0833 25.9352 39.0833 23.6406ZM49.0461 44.5H53.2161C54.5596 44.5 55.5542 45.7342 55.2576 47.0553L48.6273 76.2584C48.418 77.2145 47.563 77.875 46.5859 77.875H39.9557C38.9961 77.875 38.1586 77.2145 37.9318 76.2932C33.4302 58.302 34.3026 62.1783 33.4651 57.0852H33.3779C33.1859 59.5709 32.9591 60.1098 28.9112 76.2932C28.6844 77.2145 27.8469 77.875 26.8872 77.875H20.4141C19.437 77.875 18.582 77.1971 18.3727 76.241L11.7773 47.0379C11.4807 45.7342 12.4753 44.5 13.8187 44.5H18.0935C19.088 44.5 19.9604 45.1953 20.1523 46.1861C22.8742 59.7447 23.6594 65.2203 23.8164 67.4279C24.0956 65.6549 25.0901 61.7438 28.9461 46.0992C29.1729 45.1605 30.0104 44.5174 30.9875 44.5174H36.0648C37.0419 44.5174 37.8794 45.1779 38.1063 46.1166C42.2938 63.5689 43.1313 67.6713 43.2708 68.61C43.2359 66.6631 42.8172 65.5158 47.0396 46.1514C47.2141 45.1779 48.069 44.5 49.0461 44.5ZM67 21.1896V22.25H44.6667V0H45.731C46.8477 0 47.912 0.43457 48.6971 1.2168L65.7786 18.252C66.5638 19.0342 67 20.0945 67 21.1896Z" fill="#6B7280"/>
</svg>
